# xmcd
#
# Track frame offsets:
#	150
#	17337
#	33739
#	52879
#	68951
#	85065
#	102082
#	119259
#	136036
#	150063
#	166370
#	182017
#	197507
#	213546
#	231913
#	248608
#	265167
#	281067
#	294031
#	310970
#
# Disc length: 4338 seconds
#
# Revision: 1
# Processed by: cddbd v1.5.1PL0 Copyright (c) Steve Scherf et al.
# Submitted via: audiograbber 1.83.01
#
DISCID=0410f014
DTITLE=various art - Dance Contact 10. (2000)
DYEAR=1900
DGENRE=
TTITLE0=Madison Avenue. - Don't Call Me Baby.
TTITLE1=Adam Rickitt. - Everything My Heart Desire.
TTITLE2=Marc Anthony. - I Need To Know. (Pablo's Miami Mix)
TTITLE3=Caater. - O Si Nene.
TTITLE4=Apollo 440. - Stop The Rock.
TTITLE5=Darude. - Sandstorm.
TTITLE6=Blank and Jones. - After Love.
TTITLE7=Agnelli and Helson. - Everyday.
TTITLE8=Watergate. - Heart Af Asia. (Dj Quicksilver Mix)
TTITLE9=Redford. - Oh Susie.
TTITLE10=Daze. - 15 Minutes Of Fame.
TTITLE11=Junia. - My Guy.
TTITLE12=Lightforce. - Take You Time. (The Riddle '99)
TTITLE13=Donna Summer. - I Will Go With You.
TTITLE14=Sundance. - Won't Let This Feeling Go.
TTITLE15=Evelyn. - Funny Bunny Boy.
TTITLE16=De Funk. - Pleasure Love.
TTITLE17=Yummie. - Poppa Joe.
TTITLE18=Junior Jack. - My Feeling.
TTITLE19=Roger Sanchez. - I Never Knew.
EXTD=
EXTT0=
EXTT1=
EXTT2=
EXTT3=
EXTT4=
EXTT5=
EXTT6=
EXTT7=
EXTT8=
EXTT9=
EXTT10=
EXTT11=
EXTT12=
EXTT13=
EXTT14=
EXTT15=
EXTT16=
EXTT17=
EXTT18=
EXTT19=
PLAYORDER=
